/* XPM */
static char *d81027d6990b403091cbe756b47fe8abL19XPSAsjSMpEink[] = {
/* columns rows colors chars-per-pixel */
"50 20 5 1 ",
"  c None",
". c black",
"X c #343434",
"o c gray44",
"O c #929292",
/* pixels */
"                                                  ",
"   ............................................   ",
"  .XXXXXXXXXXXXXXXXXXXXXXXXXXXXXXXXXXXXXXXXXXXX.  ",
" .XXooooooooooooooooooooooooooooooooooooooooooXX. ",
" .XoOOOOOOOOOOOOOOOOOOOOOOOOOOOOOOOOOOOOOOOOOOoX. ",
" .XoOOOOOOOOOOOOOOOOOOOOOOOOOOOOOOOOOOOOOOOOOOoX. ",
" .XoOOOOOOOOOOOOOOOOOOOOOOOOOOOOOOOOOOOOOOOOOOoX. ",
" .XoOOOOOOOOOOOOOOOOOOOOOOOOOOOOOOOOOOOOOOOOOOoX. ",
" .XoOOOOOOOOOOOOOOOOOOOOOOOOOOOOOOOOOOOOOOOOOOoX. ",
" .XoOOOOOOOOOOOOOOOOOOOOOOOOOOOOOOOOOOOOOOOOOOoX. ",
" .XoOOOOOOOOOOOOOOOOOOOOOOOOOOOOOOOOOOOOOOOOOOoX. ",
" .XoOOOOOOOOOOOOOOOOOOOOOOOOOOOOOOOOOOOOOOOOOOoX. ",
" .XoOOOOOOOOOOOOOOOOOOOOOOOOOOOOOOOOOOOOOOOOOOoX. ",
" .XoOOOOOOOOOOOOOOOOOOOOOOOOOOOOOOOOOOOOOOOOOOoX. ",
" .XoOOOOOOOOOOOOOOOOOOOOOOOOOOOOOOOOOOOOOOOOOOoX. ",
" .XoOOOOOOOOOOOOOOOOOOOOOOOOOOOOOOOOOOOOOOOOOOoX. ",
" .XXooooooooooooooooooooooooooooooooooooooooooXX. ",
"  .XXXXXXXXXXXXXXXXXXXXXXXXXXXXXXXXXXXXXXXXXXXX.  ",
"   ............................................   ",
"                                                  "
};
