/* XPM */
static char *result[] = {
/* columns rows colors chars-per-pixel */
"20 37 130 2 ",
"   c black",
".  c #070706",
"X  c #070806",
"o  c #060708",
"O  c #060609",
"+  c #070609",
"@  c #060709",
"#  c #06070A",
"$  c #07070A",
"%  c #0F0608",
"&  c #050809",
"*  c #060808",
"=  c #05080A",
"-  c #06080A",
";  c #03090D",
":  c #040A0D",
">  c #050A0E",
",  c #050C0F",
"<  c #060C0F",
"1  c #16080A",
"2  c #180809",
"3  c #180909",
"4  c #19080B",
"5  c #240609",
"6  c #25090B",
"7  c #21090C",
"8  c #21080D",
"9  c #200A0C",
"0  c #28080A",
"q  c #2E0B0E",
"w  c #31090A",
"e  c #320A0A",
"r  c #390909",
"t  c #39090B",
"y  c #3A0C0E",
"u  c #250B11",
"i  c #260D10",
"p  c #460A0B",
"a  c #450B0D",
"s  c #450C0D",
"d  c #49090A",
"f  c #480A0B",
"g  c #4E0B0B",
"h  c #520B0B",
"j  c #530B0C",
"k  c #5E0B0B",
"l  c #5F0B0B",
"z  c #5E0C0B",
"x  c #5F0B0C",
"c  c #5D0C0D",
"v  c #5E0C0C",
"b  c #5E0C0D",
"n  c #5F0F12",
"m  c #4F1515",
"M  c #511313",
"N  c #660A0A",
"B  c #601415",
"V  c #681212",
"C  c #6D1212",
"Z  c #6D1213",
"A  c #6C1718",
"S  c #791113",
"D  c #7B1518",
"F  c #752120",
"G  c #742121",
"H  c #811317",
"J  c #821A1C",
"K  c #871B1D",
"L  c #9A1619",
"P  c #98161A",
"I  c #A41C1D",
"U  c #B31A1C",
"Y  c #B51C1F",
"T  c #AF1F20",
"R  c #B01F20",
"E  c #B51C20",
"W  c #892C2B",
"Q  c #8A2C2B",
"!  c #943434",
"~  c #963434",
"^  c #993535",
"/  c #983636",
"(  c #A03A39",
")  c #A13A39",
"_  c #A73D3D",
"`  c #BB3536",
"'  c #BE3E3F",
"]  c #C11B1E",
"[  c #C21B1E",
"{  c #D61D20",
"}  c #D61D21",
"|  c #DD1D21",
" . c #DD1E21",
".. c #D12023",
"X. c #D02123",
"o. c #D22023",
"O. c #D02D2F",
"+. c #DD2D30",
"@. c #DD2E30",
"#. c #DC2F31",
"$. c #C03334",
"%. c #C63B3C",
"&. c #C63C3C",
"*. c #CC3839",
"=. c #D53234",
"-. c #D43435",
";. c #D83132",
":. c #DA3032",
">. c #E12124",
",. c #ED2123",
"<. c #E82124",
"1. c #EB2225",
"2. c #EA2326",
"3. c #ED2024",
"4. c #EC2124",
"5. c #ED2124",
"6. c #ED2025",
"7. c #ED2125",
"8. c #EE2024",
"9. c #EE2025",
"0. c #EC2225",
"q. c #ED2026",
"w. c #BD3F40",
"e. c #B34443",
"r. c #B44443",
"t. c #B34444",
"y. c #B34544",
"u. c #B44444",
"i. c #BB4040",
"p. c None",
/* pixels */
"p.p.p.p.p.p.p.p.. X X X X X p.p.p.p.p.p.",
"p.p.p.p.p.p.p.; o @ @ @ @ @ O p.p.p.p.p.",
"p.p.p.p.p.p.p.B C C C C C Z V p.p.p.p.p.",
"p.p.p.p.p.@ @ E 9.6.6.6.6.q.} $ @ p.p.p.",
"p.p.p.p.p.& @ Y ,.5.5.5.5.5.{ + @ p.p.p.",
"p.p.p.> 8 X.o.>.5.5.5.5.5.5.<.o...D > > ",
"p.p.p.# 5 1.5.5.5.5.5.5.5.5.5.5.5.H #   ",
"p.p.K P L 4.5.5.5.5.5.5.5.5.5.5.5.U P   ",
"- @ R 8.3.5.5.5.5.5.5.5.5.5.5.5.5.5.8.  ",
"- @ T 5.5.5.5.5.5.5.5.5.5.5.5.5.5.5.5.  ",
"- @ T 5.5.5.5.5.5.5.5.5.5.5.5.5.5.5.5.  ",
"- @ T 5.5.5.5.5.5.5.5.5.5.5.5.5.5.5.5.  ",
"- @ T 5.5.5.5.5.5.5.5.5.5.5.5.5.5.5.5.  ",
"- @ T 5.5.5.5.5.5.5.5.5.5.5.5.5.5.5.5.  ",
"- @ I  .| 5.5.5.5.5.5.5.5.5.5.5.5.5.5.  ",
"- @ s l N 4.5.5.5.5.5.5.5.5.5.5.5.5.5.  ",
"= @ a l N 4.5.5.5.5.5.5.5.5.5.5.5.5.5.  ",
"p.p.q w t &.%.+.5.5.5.5.5.5.5.5.5.5.5.  ",
"p.p.p.@ 4 t.r.=.5.5.5.5.5.5.5.5.5.5.5.  ",
"p.p.p.@ 1 ( ) O.5.5.5.5.5.5.5.5.5.5.5.  ",
"p.p.p.@ % z l [ 5.5.5.5.5.5.5.5.5.5.5.  ",
"p.p.p.o % v k ] 3.4.5.5.5.5.5.5.5.5.5.  ",
"p.p.p.p.p.9 7 n S J i.i.#.5.5.5.5.5.5.  ",
"p.p.p.p.p.= @ f l A r.r.:.5.5.5.5.5.5.  ",
"p.p.p.p.p., < y p M ~ ~ $.-.;.5.5.5.5.  ",
"p.p.p.p.p.p.p.; o 2 l l ^ r.' ,.5.5.5.  ",
"p.p.p.p.p.p.p.: * 3 c b / y.w.2.2.0.5.  ",
"p.p.p.p.p.p.p.p.p.p.# $ d x G u.e.@.5.  ",
"p.p.p.p.p.p.p.p.p.p.@ @ d l F r.r.@.7.  ",
"p.p.p.p.p.p.p.p.p.p.p.p.e r m W Q ` *.  ",
"p.p.p.p.p.p.p.p.p.p.p.p.= @ 6 x l ( r.  ",
"p.p.p.p.p.p.p.p.p.p.p.p.p.> u h j ! _   ",
"p.p.p.p.p.p.p.p.p.p.p.p.p.p.p.= @ g l   ",
"p.p.p.p.p.p.p.p.p.p.p.p.p.p.p.& @ g l   ",
"p.p.p.p.p.p.p.p.p.p.p.p.p.p.p.p.p.i 0   ",
"p.p.p.p.p.p.p.p.p.p.p.p.p.p.p.p.p.- @   ",
"p.p.p.p.p.p.p.p.p.p.p.p.p.p.p.p.p.p.X X "
};
