/* XPM */
static char *result[] = {
/* columns rows colors chars-per-pixel */
"40 37 108 2 ",
"   c #070707",
".  c #080707",
"X  c #070806",
"o  c #060709",
"O  c #0F0608",
"+  c #05090B",
"@  c #16080A",
"#  c #18080A",
"$  c #030E11",
"%  c #240609",
"&  c #22090C",
"*  c #2B0A0C",
"=  c #310B0B",
"-  c #3A0A0C",
";  c #260C11",
":  c #321617",
">  c #341F20",
",  c #450B0C",
"<  c #4B0A0B",
"1  c #530B0C",
"2  c #5F0B0B",
"3  c #5F0F12",
"4  c #4F1515",
"5  c #511313",
"6  c #5A1316",
"7  c #5B1719",
"8  c #54191C",
"9  c #5A1819",
"0  c #660A0A",
"q  c #601415",
"w  c #6C1212",
"e  c #6C1718",
"r  c #741011",
"t  c #7B1314",
"y  c #7B1518",
"u  c #752121",
"i  c #811317",
"p  c #881314",
"a  c #851B1D",
"s  c #97161A",
"d  c #98161A",
"f  c #A41C1D",
"g  c #AB1B1E",
"h  c #B31B1E",
"j  c #BA1A1C",
"k  c #AF1F20",
"l  c #B31E20",
"z  c #8A2C2B",
"x  c #953434",
"c  c #993636",
"v  c #B62024",
"b  c #BB2024",
"n  c #A23B3A",
"m  c #BB3536",
"M  c #B63839",
"N  c #BE3E3F",
"B  c #C21B1E",
"V  c #CA1F22",
"C  c #D61D21",
"Z  c #DC1E21",
"A  c #CF2125",
"S  c #D12023",
"D  c #D92024",
"F  c #D02D2F",
"G  c #DD2E30",
"H  c #C03334",
"J  c #C43C3C",
"K  c #CB3B3C",
"L  c #D43434",
"P  c #D93132",
"I  c #D83B3D",
"U  c #E42326",
"Y  c #ED2124",
"T  c #EB2629",
"R  c #E82E2F",
"E  c #EB3D3E",
"W  c #BD3F40",
"Q  c #F03F41",
"!  c #B44443",
"~  c #BB4040",
"^  c #D74343",
"/  c #D04648",
"(  c #EE4649",
")  c #ED4B4D",
"_  c #EF575A",
"`  c #EE5B5D",
"'  c #EF686A",
"]  c #F06869",
"[  c #EF7779",
"{  c #EE787A",
"}  c #F27476",
"|  c #F27478",
" . c #F38284",
".. c #F4A3A3",
"X. c #F1BEBD",
"o. c #F5BFC1",
"O. c #F2C4C4",
"+. c #F2CBCA",
"@. c #F4CFD0",
"#. c #F6D5D4",
"$. c #F5DADA",
"%. c #F5E7E7",
"&. c #F8E4E3",
"*. c #F4E9EA",
"=. c #F9ECEB",
"-. c #FAF1F1",
";. c #FEFEFE",
":. c None",
/* pixels */
":.:.:.:.:.:.:.:.X X X X X X :.:.:.:.:.:.:.:.:.:.:.. . X X X X . :.:.:.:.:.:.:.:.",
":.:.:.:.:.:.:.+   o o o o o o :.:.:.:.:.:.:.:.:.:.. o o o o o o :.:.:.:.:.:.:.:.",
":.:.:.:.:.:.:.q w w w r w w w :.:.:.:.:.:.:.:.:.:.w w w w w w w :.:.:.:.:.:.:.:.",
":.:.:.:.:.o o l Y Y Y Y Y Y C o o :.:.:.:.:.$ . y Y Y Y Y Y Y Y 9 o + :.:.:.:.:.",
":.:.:.:.:.+ o h Y Y Y Y Y Y C X o :.:.:.:.:.$ . t Y Y Y Y Y Y Y 9 o + :.:.:.:.:.",
":.:.:.+ & S C U Y Y Y Y Y Y U S S y $ + $ + b S ^ | | #.&.O.| | I C g + + :.:.:.",
":.:.:.o & Y Y Y Y Y Y Y Y Y Y Y Y i o o o o V Y )  . .=.;.$. . .Q Y j o + :.:.:.",
":.:.a s s Y Y Y Y Y Y Y Y Y Y Y Y h d d d d D Y E ] ] X.+.O.o.o.} _ / d s :.:.:.",
"+ o l Y Y Y Y Y Y Y Y Y Y Y Y Y Y Y Y Y Y Y Y Y Y Y Y Y Y ..;.;... .' Y Y = o $ ",
"+ o k Y Y Y Y Y Y Y Y Y Y Y Y Y Y Y Y Y Y Y Y Y Y Y Y Y Y ..;.;... .' Y Y = o $ ",
"+ o k Y Y Y Y Y Y Y Y Y Y Y Y Y Y Y Y Y Y Y Y Y Y Y Y Y Y T R R %.;.#. . .> + $ ",
"o o k Y Y Y Y Y Y Y Y Y Y Y Y Y Y Y Y Y Y Y Y Y Y Y Y Y Y Y Y Y *.;.#. . .: o $ ",
"+ o k Y Y Y Y Y Y Y Y Y Y Y Y Y Y Y Y Y Y Y Y Y Y Y Y Y Y Y Y Y *.;.#.` ` : o $ ",
"o o k Y Y Y Y Y Y Y Y Y Y Y Y Y Y Y Y Y Y Y Y Y Y Y U Y Y Y Y Y *.;.+.Y Y = o $ ",
"+ o f Z Z Y Y Y Y Y Y Y Y Y Y Y Y Y Y Y Y Y Y Y Y Y Y Y Y Y Y Y $.-.X.Y Y = o $ ",
"o o , 0 0 Y Y Y Y Y Y Y Y Y Y Y Y Y Y Y Y Y Y Y Y Y Y Y Y Y Y Y {  .' Y Y = o $ ",
"+ + , 0 0 Y Y Y Y Y Y Y Y Y Y Y Y Y Y Y Y Y Y Y Y Y Y Y Y Y Y Y |  .] Y Y = . $ ",
":.:.* = - K J G Y Y Y Y Y Y Y Y Y Y Y Y Y Y Y Y Y Y Y Y Y Y Y Y ( ) K y y :.:.:.",
":.:.:.o # ! ! L Y Y Y Y Y Y Y Y Y Y Y Y Y Y Y Y Y Y Y Y Y Y Y Y Y Y h o + :.:.:.",
":.:.:.+ # c n F Y Y Y Y Y Y Y Y Y Y Y Y Y Y Y Y Y Y Y Y Y Y Y Y Y Y j o + :.:.:.",
":.:.:.o O 2 2 B Y Y Y Y Y Y Y Y Y Y Y Y Y Y Y Y Y Y Y Y Y Y Y Y Y Y j o o :.:.:.",
":.:.:.o @ 2 2 j Y Y Y Y Y Y Y Y Y Y Y Y Y Y Y Y Y Y Y Y Y Y Y Y Y Y j o o :.:.:.",
":.:.:.:.:.& # 2 t a ~ ~ G Y Y Y Y Y Y Y Y Y Y Y Y Y Y Y Y Y Y Y u 9 8 :.:.:.:.:.",
":.:.:.:.:.o o < 2 e ! ! P Y Y Y Y Y Y Y Y Y Y Y Y Y Y Y Y Y Y Y 7 + + :.:.:.:.:.",
":.:.:.:.:.$ + - , 5 x x m L P Y Y Y Y Y Y Y Y Y Y Y Y Y Y Z h h 8 $ :.:.:.:.:.:.",
":.:.:.:.:.:.:.$ o # 0 2 c ! N U Y Y Y Y Y Y Y Y Y Y Y Y Y j   X :.:.:.:.:.:.:.:.",
":.:.:.:.:.:.:.+ + # 2 2 c ! N Y Y Y Y Y Y Y Y Y Y Y Y Y T j   X :.:.:.:.:.:.:.:.",
":.:.:.:.:.:.:.:.:.:.+ o < 2 u ! ! P Y Y Y Y Y Y Y Y Y r + o :.:.:.:.:.:.:.:.:.:.",
":.:.:.:.:.:.:.:.:.:.o o , 2 u ! ! G Y Y Y Y Y Y Y Y Y w o o :.:.:.:.:.:.:.:.:.:.",
":.:.:.:.:.:.:.:.:.:.:.:.= - 4 z z m K L Y Y Y Y Z s d 6 :.:.:.:.:.:.:.:.:.:.:.:.",
":.:.:.:.:.:.:.:.:.:.:.:.o o & 0 2 n ! J Y Y Y Y V + . :.:.:.:.:.:.:.:.:.:.:.:.:.",
":.:.:.:.:.:.:.:.:.:.:.:.:.+ ; 1 1 c n M Y Y D A l + + :.:.:.:.:.:.:.:.:.:.:.:.:.",
":.:.:.:.:.:.:.:.:.:.:.:.:.:.:.+ o 1 2 p Y Y r o $ :.:.:.:.:.:.:.:.:.:.:.:.:.:.:.",
":.:.:.:.:.:.:.:.:.:.:.:.:.:.:.+ o < 2 p Y Y r o $ :.:.:.:.:.:.:.:.:.:.:.:.:.:.:.",
":.:.:.:.:.:.:.:.:.:.:.:.:.:.:.:.:.; * - w w :.:.:.:.:.:.:.:.:.:.:.:.:.:.:.:.:.:.",
":.:.:.:.:.:.:.:.:.:.:.:.:.:.:.:.:.+ o o o . :.:.:.:.:.:.:.:.:.:.:.:.:.:.:.:.:.:.",
":.:.:.:.:.:.:.:.:.:.:.:.:.:.:.:.:.:.X X X   :.:.:.:.:.:.:.:.:.:.:.:.:.:.:.:.:.:."
};
