/* XPM */
static char *_77ea679eea6450bd95c26833cf5f81fUSSU82db3kjhmlPe[] = {
/* columns rows colors chars-per-pixel */
"50 50 177 2 ",
"   c None",
".  c black",
"X  c #040404",
"o  c #060606",
"O  c gray3",
"+  c #090909",
"@  c gray4",
"#  c #0B0B0B",
"$  c #0C0C0C",
"%  c gray5",
"&  c #0E0E0E",
"*  c gray6",
"=  c gray9",
"-  c gray10",
";  c #1B1B1B",
":  c gray13",
">  c #222222",
",  c gray14",
"<  c #252525",
"1  c #272727",
"2  c #282828",
"3  c #2A2A2A",
"4  c #2C2C2C",
"5  c gray19",
"6  c #313131",
"7  c #323232",
"8  c gray20",
"9  c #343434",
"0  c gray21",
"q  c #373737",
"w  c #393939",
"e  c #3A3A3A",
"r  c gray23",
"t  c #3C3C3C",
"y  c gray24",
"u  c #3E3E3E",
"i  c #3F3F3F",
"p  c #414141",
"a  c gray26",
"s  c #444444",
"d  c gray27",
"f  c gray28",
"g  c #484848",
"h  c #494949",
"j  c #4B4B4B",
"k  c gray30",
"l  c #4E4E4E",
"z  c gray31",
"x  c #505050",
"c  c #515151",
"v  c gray33",
"b  c #555555",
"n  c #565656",
"m  c gray34",
"M  c #585858",
"N  c gray35",
"B  c gray36",
"V  c #5D5D5D",
"C  c #606060",
"Z  c gray39",
"A  c #646464",
"S  c #656565",
"D  c #686868",
"F  c gray42",
"G  c #6D6D6D",
"H  c gray43",
"J  c #6F6F6F",
"K  c #727272",
"L  c gray45",
"P  c #747474",
"I  c gray46",
"U  c #767676",
"Y  c gray47",
"T  c #797979",
"R  c #7C7C7C",
"E  c gray49",
"W  c gray50",
"Q  c #808080",
"!  c gray51",
"~  c #838383",
"^  c #848484",
"/  c gray53",
"(  c #888888",
")  c #898989",
"_  c gray54",
"`  c #8B8B8B",
"'  c gray55",
"]  c #8D8D8D",
"[  c #8E8E8E",
"{  c gray56",
"}  c #909090",
"|  c #929292",
" . c #939393",
".. c gray58",
"X. c #959595",
"o. c gray60",
"O. c #9A9A9A",
"+. c #9B9B9B",
"@. c #9D9D9D",
"#. c gray62",
"$. c gray63",
"%. c #A2A2A2",
"&. c gray64",
"*. c #A7A7A7",
"=. c gray66",
"-. c #AAAAAA",
";. c gray67",
":. c #ACACAC",
">. c gray68",
",. c #AFAFAF",
"<. c gray69",
"1. c gray70",
"2. c gray71",
"3. c #B6B6B6",
"4. c #B7B7B7",
"5. c gray72",
"6. c #B9B9B9",
"7. c gray73",
"8. c #BBBBBB",
"9. c #BCBCBC",
"0. c gray74",
"q. c gray",
"w. c gray75",
"e. c #C0C0C0",
"r. c gray77",
"t. c #C5C5C5",
"y. c #C6C6C6",
"u. c gray78",
"i. c gray79",
"p. c #CBCBCB",
"a. c gray80",
"s. c #CDCDCD",
"d. c #CECECE",
"f. c #D0D0D0",
"g. c gray82",
"h. c #D2D2D2",
"j. c LightGray",
"k. c #D5D5D5",
"l. c #D7D7D7",
"z. c #D8D8D8",
"x. c gray85",
"c. c #DADADA",
"v. c gray86",
"b. c gainsboro",
"n. c gray87",
"m. c #DFDFDF",
"M. c gray88",
"N. c #E1E1E1",
"B. c #E2E2E2",
"V. c gray89",
"C. c #E4E4E4",
"Z. c gray90",
"A. c #E6E6E6",
"S. c gray91",
"D. c #E9E9E9",
"F. c #EAEAEA",
"G. c gray92",
"H. c #ECECEC",
"J. c gray93",
"K. c #EEEEEE",
"L. c #EFEFEF",
"P. c gray94",
"I. c #F1F1F1",
"U. c gray95",
"Y. c #F3F3F3",
"T. c #F4F4F4",
"R. c gray96",
"E. c #F6F6F6",
"W. c gray97",
"Q. c #F8F8F8",
"!. c #F9F9F9",
"~. c gray98",
"^. c #FBFBFB",
"/. c gray99",
"(. c #FDFDFD",
"). c #FEFEFE",
"_. c white",
/* pixels */
"                                                                                                    ",
"                                    . . c E ;.<.*.;.,.;.E c . .                                     ",
"                              . 8 _ y.F.~._._._._._._._._._.F.y._ 8                                 ",
"                          . v 9.L._._._._._._.F.F.F.F._._._._._._.I.9.N                             ",
"                        8 7.E._._._.F.s.;.!             T ;.i.F._._._.E.7.0                         ",
"                    . _ L._._.~.f._                           8 ..f.~._._.L.' .                     ",
"                  O 2._._._.s.U                                     G s._._._.2.O                   ",
"                u z._._.I...                                            ' I._._.l.s                 ",
"              u b._._.z.l                                                 j Z._._.b.a               ",
"            O z._._.i.                                                      X y._._.f.=             ",
"          . 2._._.y.                                                          > y._._.2.            ",
"          / _._.N.                                          . . u G ' |         X N._.~./           ",
"        j L._.I.j                               . > s Z #.9.f.F.~._._.f.          s I._.L.u         ",
"        9._._.|                         a T +.9.z.F.E._._._._._._._._.s.            ' _._.7.        ",
"      v E._.s.                          l._._._._._._._._._._._._._._.f.            $ f._.E.S       ",
"      7._.~.G                           z._._._._._._._._._._._._._._.f.              S ~._.7.      ",
"    0 L._.f.                            z._._._._._._._._._._._._._._.f.              . f._.L.a     ",
"    _ _._.|                             z._._._._._._._._._.I.z.e.y._.f.                E _._.'     ",
"    y._.F.8                             z._._._.~.Z.s.2.+.G       $._.f.                > F._.y.    ",
"  . F._.i.                              z._.i._ l                 $._.f.                  i._.Z..   ",
"  N _._.$.                              z._.7.                    $._.f.                  $._.~.l   ",
"  ! _._.U                               z._.2.                    *._.f.                  G _._.'   ",
"  ;._.~.N                               z._.7.                    $._.f.                  v _._.2.  ",
"  <._.F.                                z._.7.                    $._.f.                  $ L._.7.  ",
"  ;._.F.                                z._.9.                    $._.f.                  $ F._.,.  ",
"  *._.F.                                z._.9.                    *._.f.                  $ F._.,.  ",
"  <._.F.$                               z._.9.                    $._.f.                  O F._.2.  ",
"  ;._._.Z                               z._.9.                    $._.f.                  c _._.2.  ",
"  / _._.U                               z._.9.                    $._.f.                  G _._.|   ",
"  v ~._.$.                              l._.e.            . V _ ! 7._.f.                  $._.~.Z   ",
"  3 L._.i.                              l._.7.          c s._._._._._.f.                . i._.F.    ",
"    e._.L.w                       .   . l._.,.        < Z._._._._._._.f.                3 F._.y.    ",
"    _ _._.|                   $ / s.l.l.L._.#.        .._._._._._._._.l.                ! _._.|     ",
"    w L._.f.                - e._._._._._._.$.        ;._._._._._._._.*.              . f._.L.      ",
"      9._.~.D               +._._._._._._._.$.        v I._._._._._.i.                S ~._.7.      ",
"      V E._.s.              f._._._._._._._.'           U z.I._.Z.<.                O s._.E.D       ",
"        7._._.'             y._._._._._._.Z.4               8 s                     _ _._.7.        ",
"        l L._.I.s           l N._._._._.b.T                                       a I._.L.s         ",
"          _ _._.b.$           3 | $.;.' ;                                       X N._._.|           ",
"            2._._.i.>                                                         - y._._.7.            ",
"            O z._._.y.O                                                     X y._._.f.              ",
"              a b._._.N.j                                                 a N._._.b.c               ",
"                a z._._.I.'                                           $ ..I._._.s.c                 ",
"                  O 7.~._._.s.G                                     S f._._.~.7.                    ",
"                    . _ L._._.~.f./ u                         < ' f.~._._.L.'                       ",
"                        l 2.E._._._.F.i.$.T S         V K $.i.F._._._.~.7.a                         ",
"                            N 9.L._._._._._._.F.F.F.Z._._._._._._.L.7.V                             ",
"                                0 / e.F._._._._._._._._._.~.F.y._ w                                 ",
"                                      . v ! ;.<.;.*.,.;.! v .                                       ",
"                                                                                                    "
};
