/* XPM */
static char *_92408e13e734229cf7a6dd47dd80096Zmn60xfrNcdAMA1V[] = {
/* columns rows colors chars-per-pixel */
"50 50 203 2 ",
"   c None",
".  c black",
"X  c #040404",
"o  c #060606",
"O  c gray3",
"+  c #090909",
"@  c gray4",
"#  c #0B0B0B",
"$  c #0C0C0C",
"%  c gray5",
"&  c #0E0E0E",
"*  c gray6",
"=  c gray8",
"-  c gray9",
";  c #1B1B1B",
":  c gray11",
">  c #1E1E1E",
",  c gray13",
"<  c #222222",
"1  c gray14",
"2  c #252525",
"3  c #272727",
"4  c #282828",
"5  c #2A2A2A",
"6  c #2C2C2C",
"7  c #2D2D2D",
"8  c gray19",
"9  c #313131",
"0  c #323232",
"q  c gray20",
"w  c #343434",
"e  c #353535",
"r  c gray21",
"t  c #373737",
"y  c #393939",
"u  c #3A3A3A",
"i  c gray23",
"p  c #3C3C3C",
"a  c #3E3E3E",
"s  c #3F3F3F",
"d  c #414141",
"f  c gray26",
"g  c #434343",
"h  c #444444",
"j  c gray27",
"k  c gray28",
"l  c #484848",
"z  c #494949",
"x  c #4B4B4B",
"c  c gray30",
"v  c #4E4E4E",
"b  c gray31",
"n  c #515151",
"m  c #535353",
"M  c gray33",
"N  c #555555",
"B  c #565656",
"V  c gray34",
"C  c #585858",
"Z  c gray35",
"A  c gray36",
"S  c #5D5D5D",
"D  c #606060",
"F  c gray39",
"G  c #646464",
"H  c #656565",
"J  c #676767",
"K  c #686868",
"L  c DimGray",
"P  c #6A6A6A",
"I  c gray42",
"U  c #6D6D6D",
"Y  c gray43",
"T  c #6F6F6F",
"R  c #717171",
"E  c #727272",
"W  c gray45",
"Q  c #747474",
"!  c gray46",
"~  c #767676",
"^  c #777777",
"/  c gray47",
"(  c #797979",
")  c gray48",
"_  c #7B7B7B",
"`  c #7C7C7C",
"'  c gray49",
"]  c gray50",
"[  c #808080",
"{  c gray51",
"}  c #838383",
"|  c #848484",
" . c gray52",
".. c #868686",
"X. c gray53",
"o. c #888888",
"O. c #898989",
"+. c gray54",
"@. c #8B8B8B",
"#. c gray55",
"$. c #8D8D8D",
"%. c #8E8E8E",
"&. c gray56",
"*. c #909090",
"=. c gray57",
"-. c #929292",
";. c #939393",
":. c #959595",
">. c #989898",
",. c gray60",
"<. c #9A9A9A",
"1. c #9B9B9B",
"2. c gray61",
"3. c #9D9D9D",
"4. c gray62",
"5. c gray63",
"6. c #A2A2A2",
"7. c gray64",
"8. c #A4A4A4",
"9. c #A5A5A5",
"0. c #A7A7A7",
"q. c gray66",
"w. c #AAAAAA",
"e. c gray67",
"r. c #ACACAC",
"t. c gray68",
"y. c #AEAEAE",
"u. c #AFAFAF",
"i. c gray69",
"p. c #B1B1B1",
"a. c gray70",
"s. c #B4B4B4",
"d. c gray71",
"f. c #B6B6B6",
"g. c #B7B7B7",
"h. c gray72",
"j. c #B9B9B9",
"k. c gray73",
"l. c #BBBBBB",
"z. c #BCBCBC",
"x. c gray74",
"c. c gray",
"v. c gray75",
"b. c #C0C0C0",
"n. c #C1C1C1",
"m. c gray76",
"M. c gray77",
"N. c #C5C5C5",
"B. c #C6C6C6",
"V. c gray78",
"C. c #C8C8C8",
"Z. c gray79",
"A. c #CACACA",
"S. c #CBCBCB",
"D. c gray80",
"F. c #CDCDCD",
"G. c #CECECE",
"H. c gray81",
"J. c #D0D0D0",
"K. c gray82",
"L. c #D2D2D2",
"P. c LightGray",
"I. c gray83",
"U. c #D5D5D5",
"Y. c #D7D7D7",
"T. c #D8D8D8",
"R. c gray85",
"E. c #DADADA",
"W. c gray86",
"Q. c gainsboro",
"!. c gray87",
"~. c #DFDFDF",
"^. c gray88",
"/. c #E1E1E1",
"(. c #E2E2E2",
"). c gray89",
"_. c gray90",
"`. c #E6E6E6",
"'. c #E7E7E7",
"]. c gray91",
"[. c #E9E9E9",
"{. c #EAEAEA",
"}. c gray92",
"|. c #ECECEC",
" X c gray93",
".X c #EEEEEE",
"XX c #EFEFEF",
"oX c gray94",
"OX c #F1F1F1",
"+X c gray95",
"@X c #F3F3F3",
"#X c #F4F4F4",
"$X c gray96",
"%X c #F6F6F6",
"&X c gray97",
"*X c #F8F8F8",
"=X c #F9F9F9",
"-X c gray98",
";X c #FBFBFB",
":X c gray99",
">X c #FDFDFD",
",X c #FEFEFE",
"<X c white",
/* pixels */
"                                                                                                    ",
"                                    . . n ' e.i.0.e.u.e.' n . .                                     ",
"                              . 8 o.N.XX-X<X<X<X<X<X<X<X<X<X[.N.o.8                                 ",
"                          . M z.XX<X<X<X<X<X<X[.[.[.[.<X<X<X<X<X<XOXz.Z                             ",
"                        8 k.%X<X<X<X[.F.e.{             ) e.S.[.<X<X<X%Xk.e                         ",
"          .         . o.XX<X<X-XK.#.                          8 -.K.-X<X<XXX#..                     ",
"        L U.v     O d.<X<X<XF.~                                     R F.<X<X<Xd.%                   ",
"      . W.<X).k u W.<X<XOX:.                                            #.OX<X<XK.k                 ",
"        L XX<X).o.-X<XW.v                                                 x ).<X<X!.k               ",
"          L XX<X).6.N.                                                      O N.<X<XK.=             ",
"          .  .OX<XW.u                                                         , N.<X<Xd.            ",
"          o.%X6.OX<XW.e                                     . . a U #.-.        X !.<X-X .          ",
"        x XX<X[.R OX<XU.8                       . , k F 4.z.K.[.-X<X<XK.          k OX<XXXa         ",
"        z.<X<X-.  ' %X<XU.7             f ) 1.z.W.XXOX<X<X<X<X<X<X<X<XF.            #.<X<Xk.        ",
"      M %X<XF.      ' %X<XK.2           U.<X<X<X<X<X<X<X<X<X<X<X<X<X<XK.            % K.<X%XF       ",
"      k.<X-XU          .%X<XF.>         U.<X<X<X<X<X<X<X<X<X<X<X<X<X<XK.              F -X<Xk.      ",
"    e XX<XK.             .-X<XS.>       W.<X<X<X<X<X<X<X<X<X<X<X<X<X<XK.              . K.<XXXf     ",
"    o.<X<X-.              o.-X<XS.=     U.<X<X<X<X<X<X<X<X<XXXW.z.N.<XK.                { <X<X#.    ",
"    N.<X[.8                 #.-X<XN.    W.<X<X<X-X_.F.i.1.U       6.<XK.                , [.<Xb.    ",
"  . [.<XF.                    -.-X<XN.O U.<XS.o.v                 6.<XK.                  S.<X[..   ",
"  Z <X<X6.                      :.-X<Xz.0.<Xk.                    6.<XK.                  6.<X-Xn   ",
"   .<X<X~                         1.-X<Xk.S.d.                    6.<XK.                  U <X<X#.  ",
"  e.<X-XZ                           4.<X<Xk.-.                    6.<XK.                  M <X<Xd.  ",
"  i.<X[.                              4.-X<Xi.                    6.<XK.                  % [.<Xk.  ",
"  e.<X[.                                0.<X<Xu.                  6.<XK.                  % [.<Xu.  ",
"  0.<X[.                                z.e.<X<Xu.                6.<XK.                  % [.<Xu.  ",
"  i.<X[.%                               W.).e.<X<X0.              6.<XK.                  O [.<Xd.  ",
"  e.<X<XG                               U.<X0.u.<X-X0.            6.<XK.                  v <X<Xd.  ",
"   .<X<X~                               W.<Xz.  i.<X<X6.          6.<XK.                  L <X<X-.  ",
"  M <X<X6.                              U.<Xb.    i.<X<X4.. F o.{ k.<XK.                  6.<X<XF   ",
"  5 [.<XS.                              W.<Xk.      d.<X<X4.!.<X<X<X<XK.                . S.<X[.    ",
"    N.<X[.u                       .   . U.<Xu.        k.<X-X4.).<X<X<XK.                5 [.<XN.    ",
"    o.<X<X-.                  %  .F.U.W.XX<X4.        ) b.<X-X1._.<X<XU.                { <X<X-.    ",
"    u XX<XK.                ; b.<X<X<X<X<X<X6.        e.K.N.<X-X1._.<Xe.              . K.<XXX      ",
"      z.<X-XL               1.<X<X<X<X<X<X<X4.        M %XF.N.<X-X:.k.                G -X<Xk.      ",
"      A %X<XF.              F.<X<X<X<X<X<X<X#.          R W.b.S.<X-X .              O F.<X%XL       ",
"        k.<X<X#.            N.<X<X<X<X<X<X_.7               8 u F.<X%X{             #.<X<Xk.        ",
"        v XX<XOXx           v ).<X<X<X<X!.)                       F.<X-X'         f OX<XXXk         ",
"          o.<X<XW.%           2 -.6.e.o.;                           K.<X%X)     X ).<X-X-.          ",
"            d.<X<XN.,                                                 U.<X%X~ ; N.<X<Xk.            ",
"            O W.<X<XN.O                                               e U.<X%X{ OX<XU.              ",
"              f !.<X<X!.x                                               e W.<XOX-.U.n               ",
"                f W.<X<XOX#.                                          O -.u.!.<XOXL                 ",
"                  O d.<X<X<XF.U                                     G K.<X<Xi.).<XXXG               ",
"                    . o.XX<X<X-XK. .a                         , #.K.-X<X<XXX#.f !.<XXXF             ",
"                        v d.%X<X<X<X[.F.6.) G         A R 6.S.[.<X<X<X-Xk.a     v ).<X!..           ",
"                            Z z.XX<X<X<X<X<X<X[.[.XX_.<X<X<X<X<X<XXXk.A           M U.L             ",
"                                e o.b.[.<X<X<X<X<X<X<X<X<X<X[.N.o.u                 .               ",
"                                      . M { e.i.e.0.u.e.{ M .                                       ",
"                                                                                                    "
};
